<svg width="259" height="98" viewBox="0 0 259 98" fill="none" xmlns="http://www.w3.org/2000/svg">
<path d="M0.5 47.616C0.5 20.608 16.884 0.511993 47.092 0.511993C77.3 0.511993 93.684 20.608 93.684 47.616C93.684 73.6 78.58 97.024 47.092 97.024C14.068 97.024 0.5 75.52 0.5 47.616ZM21.492 47.616C21.492 65.28 27.38 80.128 47.092 80.128C66.164 80.128 72.692 65.28 72.692 47.616C72.692 29.952 64.244 17.408 47.092 17.408C29.94 17.408 21.492 29.952 21.492 47.616ZM128.374 86.016V20.352H108.534C102.518 20.352 97.654 17.28 97.654 11.52C97.654 5.75999 102.518 2.688 108.534 2.688H169.206C175.222 2.688 180.086 5.75999 180.086 11.52C180.086 17.28 175.222 20.352 169.206 20.352H149.366V86.016C149.366 92.288 145.27 96.512 138.87 96.512C132.47 96.512 128.374 92.288 128.374 86.016ZM210.29 86.016V58.88L184.562 16.128C183.538 14.464 182.77 12.544 182.77 10.624C182.77 3.45599 189.298 1.02399 193.394 1.02399C198.386 1.02399 200.69 3.072 202.866 7.16799L221.17 40.832L239.346 7.16799C241.778 2.56 244.082 1.02399 248.434 1.02399C252.274 1.02399 258.802 3.45599 258.802 10.624C258.802 12.544 258.034 14.464 257.01 16.128L231.282 58.88V86.016C231.282 92.288 227.186 96.512 220.786 96.512C214.386 96.512 210.29 92.288 210.29 86.016Z" fill="#FF16BE"/>
</svg>
